<?xml version="1.0" encoding="utf-8"?>
<svg viewBox="0 0 534 85" xmlns="http://www.w3.org/2000/svg">
  <defs>
    <style>.cls-1{fill:#404041;}.cls-2{font-size:32.3px;fill:#808184;font-family:Roboto-Regular, Roboto;}.cls-3{letter-spacing:-0.02em;}.cls-4{letter-spacing:-0.01em;}.cls-5{letter-spacing:-0.01em;}.cls-6{letter-spacing:0.01em;}.cls-7{letter-spacing:-0.01em;}.cls-8{fill:#00a8b3;}.cls-9{fill:#f2c54b;}</style>
  </defs>
  <title>applauzLogoGrey</title>
  <g id="Layer_2" data-name="Layer 2">
    <g id="Layer_1-2" data-name="Layer 1">
      <path class="cls-1" d="M129,52.9V83H103.24V.16h35.38q13.23,0,20.12,3a24.47,24.47,0,0,1,10.92,9.29,25.29,25.29,0,0,1,4,14q0,11.83-8.25,19.12t-22,7.28Zm-.36-17.78h8.5q11.23,0,11.23-8.25,0-7.77-10.38-7.77h-9.35Z"/>
      <path class="cls-1" d="M205.86,52.9V83H180.06V.16h35.38q13.23,0,20.12,3a24.47,24.47,0,0,1,10.92,9.29,25.29,25.29,0,0,1,4,14q0,11.83-8.25,19.12t-22,7.28Zm-.36-17.78H214q11.23,0,11.23-8.25,0-7.77-10.38-7.77h-9.35Z"/>
      <path class="cls-1" d="M366.39,83l-4.68-16.33H339.52l-5,16.33H313.9L339.48.16h26.88l26,82.84ZM343.84,48.59h13.4l-6.7-24Z"/>
      <polygon class="cls-1" points="308.08 81.53 313.9 62.67 282.31 62.67 282.31 0.16 256.88 0.16 256.88 83 307.63 83 308.08 81.53"/>
      <path class="cls-1" d="M462.17.16V55q0,15.6-9.25,22.42t-24.12,6.83q-15.66,0-25.16-6.55t-9.5-21.36V.16H420V53.39q0,5.95,2.51,8.68t8,2.73a13.25,13.25,0,0,0,7.53-2,7.62,7.62,0,0,0,3.51-4.46,52.34,52.34,0,0,0,.58-9.71V.16Z"/>
      <polygon class="cls-8" points="27.71 83 0 83 29.56 0 55.43 0 27.71 83"/>
      <polygon class="cls-9" points="97 83 59.12 83 31.41 0 66.51 0 97 83"/>
      <polygon class="cls-1" points="497.43 63.46 533.08 16.25 533.08 0.16 468.08 0.16 468.08 19.34 502 19.34 468.38 63.13 468.19 83 534.23 83 534.23 63.46 497.43 63.46"/>
    </g>
  </g>
</svg>